<svg width="56" height="57" viewBox="0 0 56 57" fill="none" xmlns="http://www.w3.org/2000/svg">
<path fill-rule="evenodd" clip-rule="evenodd" d="M49.8944 2.88286C49.725 2.54408 49.3788 2.33008 49 2.33008C48.6212 2.33008 48.275 2.54408 48.1056 2.88287C47.6357 3.82256 47.193 4.47291 46.6679 4.99799C46.1428 5.52308 45.4925 5.96583 44.5528 6.43567C44.214 6.60507 44 6.95133 44 7.3301C44 7.70887 44.214 8.05514 44.5528 8.22453C45.4925 8.69437 46.1428 9.13712 46.6679 9.66221C47.193 10.1873 47.6357 10.8376 48.1056 11.7773C48.275 12.1161 48.6212 12.3301 49 12.3301C49.3788 12.3301 49.7251 12.1161 49.8944 11.7773C50.3643 10.8376 50.807 10.1873 51.3321 9.66221C51.8572 9.13712 52.5075 8.69437 53.4472 8.22453C53.786 8.05514 54 7.70887 54 7.3301C54 6.95133 53.786 6.60507 53.4472 6.43567C52.5075 5.96583 51.8572 5.52308 51.3321 4.99799C50.807 4.47291 50.3643 3.82256 49.8944 2.88286ZM48.0821 6.4122C48.4197 6.0746 48.7209 5.70995 49 5.30957C49.2791 5.70995 49.5803 6.07461 49.9179 6.4122C50.2555 6.7498 50.6202 7.05103 51.0205 7.3301C50.6202 7.60917 50.2555 7.9104 49.9179 8.24799C49.5803 8.58559 49.2791 8.95024 49 9.35062C48.721 8.95024 48.4197 8.58559 48.0821 8.24799C47.7445 7.9104 47.3799 7.60917 46.9795 7.3301C47.3799 7.05103 47.7445 6.7498 48.0821 6.4122ZM14.5 44.3301C13.1193 44.3301 12 45.4494 12 46.8301C12 48.2108 13.1193 49.3301 14.5 49.3301C15.8807 49.3301 17 48.2108 17 46.8301C17 45.4494 15.8807 44.3301 14.5 44.3301ZM14 46.8301C14 46.5539 14.2239 46.3301 14.5 46.3301C14.7761 46.3301 15 46.5539 15 46.8301C15 47.1062 14.7761 47.3301 14.5 47.3301C14.2239 47.3301 14 47.1062 14 46.8301ZM6.89443 46.8829C6.72504 46.5441 6.37878 46.3301 6 46.3301C5.62123 46.3301 5.27497 46.5441 5.10558 46.8829C4.57501 47.944 4.40105 48.2648 4.1679 48.498C3.93476 48.7311 3.61395 48.9051 2.5528 49.4357C2.21402 49.6051 2.00002 49.9513 2.00002 50.3301C2.00002 50.7089 2.21402 51.0551 2.5528 51.2245C3.61395 51.7551 3.93476 51.9291 4.16791 52.1622C4.40106 52.3954 4.57502 52.7162 5.10559 53.7773C5.27498 54.1161 5.62124 54.3301 6.00002 54.3301C6.37879 54.3301 6.72505 54.1161 6.89444 53.7773C7.42501 52.7162 7.59897 52.3954 7.83212 52.1622C8.06527 51.9291 8.38608 51.7551 9.44723 51.2245C9.78601 51.0551 10 50.7089 10 50.3301C10 49.9513 9.78601 49.6051 9.44723 49.4357C8.38609 48.9051 8.06527 48.7311 7.83212 48.498C7.59897 48.2648 7.42501 47.944 6.89443 46.8829ZM5.58213 49.9122C5.73528 49.759 5.87168 49.5916 6.00001 49.4074C6.12835 49.5916 6.26475 49.759 6.4179 49.9122C6.57106 50.0654 6.73847 50.2018 6.92267 50.3301C6.73847 50.4584 6.57106 50.5948 6.41791 50.748C6.26475 50.9011 6.12836 51.0686 6.00002 51.2528C5.87168 51.0686 5.73528 50.9011 5.58212 50.748C5.42897 50.5948 5.26156 50.4584 5.07737 50.3301C5.26156 50.2018 5.42897 50.0654 5.58213 49.9122ZM4.05321 24.2583C6.76406 22.8913 13.7446 20.3301 28 20.3301C42.2554 20.3301 49.2359 22.8913 51.9468 24.2583C52.5966 24.5861 53 25.3046 53 26.2036V30.6806C52.4377 30.2026 51.6909 29.9392 50.8995 30.0191C50.3991 30.0697 49.9397 30.2538 49.5449 30.5149C49.4652 30.3682 49.3755 30.2264 49.2762 30.0906C48.0038 28.3505 45.5308 28.0369 43.8643 29.4043C43.6979 29.5408 43.5338 29.6865 43.3761 29.8422C43.3265 29.7614 43.2741 29.6821 43.2189 29.6045C41.7877 27.5914 38.9417 27.2312 37.0541 28.8242C36.7138 29.1114 36.3846 29.4305 36.093 29.7877L36.0674 29.7533C34.4881 27.6475 31.4798 27.2656 29.4243 28.91C28.9153 29.3172 28.4137 29.7828 28 30.3315C27.5863 29.7828 27.0847 29.3172 26.5757 28.91C24.5202 27.2656 21.5119 27.6475 19.9326 29.7533L19.907 29.7877C19.6154 29.4305 19.2862 29.1114 18.9459 28.8242C17.0583 27.2312 14.2123 27.5914 12.7811 29.6045C12.7259 29.6821 12.6735 29.7614 12.6239 29.8422C12.4662 29.6865 12.3021 29.5408 12.1357 29.4043C10.4692 28.0369 7.9962 28.3505 6.7238 30.0906C6.62451 30.2264 6.53488 30.3681 6.45526 30.5146C6.06082 30.2535 5.60206 30.069 5.10252 30.0175C4.20737 29.9253 3.50101 30.24 3 30.7295V26.2036C3 25.3046 3.40337 24.5861 4.05321 24.2583ZM54.1213 33.623L54 33.7443V35.5091C54 36.5093 53.1777 37.3301 52.179 37.3301H49.9806C49.8328 38.4508 48.8616 39.3301 47.7032 39.3301H44.2968C44.0409 39.3301 43.7941 39.2872 43.5633 39.2082C43.1054 39.8824 42.3326 40.3301 41.465 40.3301H37.535C37.1825 40.3301 36.8457 40.2562 36.5393 40.1233C36.0508 40.8482 35.2224 41.3301 34.2929 41.3301H29.7071C29.063 41.3301 28.4675 41.0987 28 40.7155C27.5325 41.0987 26.937 41.3301 26.2929 41.3301H21.7071C20.7776 41.3301 19.9492 40.8482 19.4607 40.1233C19.1543 40.2562 18.8175 40.3301 18.465 40.3301H14.535C13.6674 40.3301 12.8946 39.8824 12.4367 39.2082C12.2059 39.2872 11.9591 39.3301 11.7032 39.3301H8.29679C7.13841 39.3301 6.16715 38.4508 6.01943 37.3301H3.821C3.20034 37.3301 2.70505 37.0307 2.39634 36.6072C2.1096 36.2138 2 35.7447 2 35.3301V33.7443L1.87868 33.623C1.31607 33.0604 1 32.2973 1 31.5017V26.2036C1 24.7283 1.68257 23.2139 3.15266 22.4726C3.86067 22.1155 4.79758 21.7012 6 21.2754V19.3301C6 17.6732 7.34315 16.3301 9 16.3301H10C11.6569 16.3301 13 17.6732 13 19.3301V19.4932C14.7576 19.1814 16.7499 18.9101 19 18.7081V17.3301C19 15.6732 20.3431 14.3301 22 14.3301H23C24.6569 14.3301 26 15.6732 26 17.3301V18.347C26.6509 18.3359 27.3175 18.3301 28 18.3301C28.6825 18.3301 29.3491 18.3359 30 18.347V17.3301C30 15.6732 31.3431 14.3301 33 14.3301H34C35.6569 14.3301 37 15.6732 37 17.3301V18.7081C39.2501 18.9101 41.2424 19.1814 43 19.4932V19.3301C43 17.6732 44.3431 16.3301 46 16.3301H47C48.6569 16.3301 50 17.6732 50 19.3301V21.2754C51.2024 21.7012 52.1393 22.1155 52.8473 22.4726C54.3174 23.2139 55 24.7283 55 26.2036V31.5017C55 32.2973 54.6839 33.0604 54.1213 33.623ZM48 20.6358V19.3301C48 18.7778 47.5523 18.3301 47 18.3301H46C45.4477 18.3301 45 18.7778 45 19.3301V19.8852C46.1093 20.1245 47.1066 20.3781 48 20.6358ZM35 18.5521V17.3301C35 16.7778 34.5523 16.3301 34 16.3301H33C32.4477 16.3301 32 16.7778 32 17.3301V18.3996C33.0431 18.4369 34.0426 18.4883 35 18.5521ZM24 18.3996V17.3301C24 16.7778 23.5523 16.3301 23 16.3301H22C21.4477 16.3301 21 16.7778 21 17.3301V18.5521C21.9574 18.4883 22.9569 18.4369 24 18.3996ZM11 19.8852V19.3301C11 18.7778 10.5523 18.3301 10 18.3301H9C8.44772 18.3301 8 18.7778 8 19.3301V20.6358C8.89336 20.3781 9.89065 20.1245 11 19.8852ZM14 32.9063V37.0333V37.7951C14 38.0788 14.2512 38.3301 14.535 38.3301H18.465C18.7488 38.3301 19 38.0788 19 37.7951V32.737C19 31.8153 18.5244 31.0856 17.656 30.3527C16.6624 29.5141 15.1644 29.7037 14.4111 30.7633C14.1437 31.1395 14 31.5896 14 32.0511V32.9063ZM12 32.9063C12 32.1623 11.6162 31.5651 10.867 30.9504C10.0884 30.3115 8.93277 30.458 8.33821 31.2711C8.11845 31.5716 8 31.9343 8 32.3066V33.2508V35.5091V37.0333C8 37.1031 8.02905 37.1779 8.09063 37.2394C8.15219 37.301 8.22692 37.3301 8.29679 37.3301H11.7032C11.7731 37.3301 11.8478 37.301 11.9094 37.2394C11.9709 37.1779 12 37.1031 12 37.0333V32.9063ZM6 33.2508C6 33.0168 5.88752 32.712 5.64894 32.4425C5.41088 32.1736 5.12809 32.0308 4.89748 32.007C4.71676 31.9884 4.607 32.0213 4.53479 32.0582C4.45607 32.0985 4.37056 32.1706 4.2864 32.2943C4.10493 32.5609 4 32.9683 4 33.3301V35.3301H6V33.2508ZM21 37.7951V38.623C21 39.0005 21.3296 39.3301 21.7071 39.3301H26.2929C26.6704 39.3301 27 39.0005 27 38.623V33.2526C27 32.1414 26.3924 31.3246 25.3263 30.4717C24.1524 29.5326 22.4345 29.7507 21.5326 30.9533C21.1869 31.4142 21 31.9749 21 32.551V32.737V37.7951ZM29 38.623C29 39.0005 29.3296 39.3301 29.7071 39.3301H34.2929C34.6704 39.3301 35 39.0005 35 38.623V37.7951V32.737V32.551C35 31.9749 34.8131 31.4142 34.4674 30.9533C33.5655 29.7507 31.8476 29.5326 30.6737 30.4717C29.6076 31.3246 29 32.1414 29 33.2526V38.623ZM37 37.7951C37 38.0788 37.2512 38.3301 37.535 38.3301H41.465C41.7488 38.3301 42 38.0788 42 37.7951V37.0333V32.9063V32.0511C42 31.5896 41.8563 31.1395 41.5889 30.7633C40.8356 29.7037 39.3376 29.5141 38.344 30.3527C37.4756 31.0856 37 31.8153 37 32.737V37.7951ZM44 37.0333C44 37.1031 44.0291 37.1779 44.0906 37.2394C44.1522 37.301 44.2269 37.3301 44.2968 37.3301H47.7032C47.7731 37.3301 47.8478 37.301 47.9094 37.2394C47.9709 37.1779 48 37.1031 48 37.0333V35.5091V33.2508V32.3066C48 31.9343 47.8815 31.5716 47.6618 31.2711C47.0672 30.458 45.9116 30.3115 45.133 30.9504C44.3838 31.5651 44 32.1623 44 32.9063V37.0333ZM50 35.3301H52V32.821C52 32.355 51.5673 31.9619 51.1005 32.009C50.8706 32.0322 50.5885 32.1743 50.3508 32.4427C50.1125 32.7118 50 33.0166 50 33.2508V35.3301Z" fill="white"/>
</svg>
