<svg width="33" height="32" viewBox="0 0 33 32" fill="none" xmlns="http://www.w3.org/2000/svg">
<path fill-rule="evenodd" clip-rule="evenodd" d="M4.00006 16C4.00006 9.18849 9.52188 3.66667 16.3334 3.66667C23.1449 3.66667 28.6667 9.18849 28.6667 16C28.6667 22.8115 23.1449 28.3333 16.3334 28.3333C9.52188 28.3333 4.00006 22.8115 4.00006 16ZM16.3334 1.66667C8.41731 1.66667 2.00006 8.08392 2.00006 16C2.00006 23.9161 8.41731 30.3333 16.3334 30.3333C24.2495 30.3333 30.6667 23.9161 30.6667 16C30.6667 8.08392 24.2495 1.66667 16.3334 1.66667ZM17.3334 8C17.3334 7.44772 16.8857 7 16.3334 7C15.7811 7 15.3334 7.44772 15.3334 8V16C15.3334 16.3788 15.5474 16.725 15.8862 16.8944L21.2195 19.5611C21.7135 19.8081 22.3142 19.6079 22.5612 19.1139C22.8081 18.6199 22.6079 18.0192 22.1139 17.7722L17.3334 15.382V8Z" fill="#00BDD6"/>
</svg>
