<svg width="46" height="47" viewBox="0 0 46 47" fill="none" xmlns="http://www.w3.org/2000/svg">
<path fill-rule="evenodd" clip-rule="evenodd" d="M23 15.9976C23 14.9976 23 14.9976 22.9999 14.9976H22.9996H22.9985L22.9945 14.9976L22.9792 14.9976L22.9201 14.9977C22.8685 14.9978 22.793 14.998 22.6963 14.9985C22.5031 14.9994 22.2256 15.0012 21.8875 15.0048C21.2115 15.012 20.291 15.0265 19.3153 15.0555C18.3412 15.0844 17.3039 15.1281 16.3967 15.1943C15.5174 15.2584 14.6753 15.3488 14.1417 15.4915L14.1278 15.4953C13.5016 15.6725 12.9681 15.96 12.4436 16.5007C11.9191 17.0414 11.6479 17.5835 11.4899 18.2148C11.4845 18.2364 11.4799 18.2582 11.4759 18.2801C11.1506 20.084 10.9913 21.9139 11 23.7469C10.9888 25.5937 11.1481 27.4376 11.4759 29.2551C11.4818 29.2875 11.4892 29.3197 11.4983 29.3515C11.6724 29.963 11.9511 30.4846 12.4747 31.0028C12.9983 31.521 13.5228 31.7943 14.1361 31.9621L14.1361 31.9621L14.1417 31.9636C14.6753 32.1063 15.5174 32.1967 16.3967 32.2608C17.3039 32.327 18.3412 32.3707 19.3153 32.3996C20.291 32.4286 21.2115 32.4431 21.8875 32.4503C22.2256 32.4539 22.5031 32.4557 22.6963 32.4566C22.793 32.4571 22.8685 32.4573 22.9201 32.4574L22.9792 32.4575L22.9945 32.4576L22.9985 32.4576H22.9996H22.9999C23 32.4576 23 32.4576 23 31.4576C23 32.4576 23.0001 32.4576 23.0002 32.4576H23.0005H23.0015L23.0055 32.4576L23.0209 32.4575L23.0799 32.4574C23.1315 32.4573 23.2071 32.4571 23.3037 32.4566C23.4969 32.4557 23.7744 32.4539 24.1126 32.4503C24.7886 32.4431 25.709 32.4286 26.6847 32.3996C27.6589 32.3707 28.6961 32.327 29.6034 32.2608C30.4827 32.1967 31.3247 32.1063 31.8584 31.9636L31.8723 31.9598C32.4984 31.7826 33.032 31.4951 33.5565 30.9544C34.0809 30.4137 34.3521 29.8716 34.5101 29.2404C34.5155 29.2187 34.5202 29.1969 34.5242 29.175C34.847 27.3845 35.0063 25.5683 35 23.7489C35.0113 21.9019 34.852 20.0578 34.5241 18.24C34.5202 18.2181 34.5155 18.1964 34.5101 18.1748C34.3521 17.5435 34.0809 17.0014 33.5565 16.4607C33.032 15.92 32.4984 15.6325 31.8723 15.4553C31.8606 15.452 31.849 15.449 31.8372 15.4461C31.3115 15.3177 30.4767 15.2355 29.5971 15.177C28.6916 15.1167 27.6557 15.0768 26.6821 15.0504C25.7071 15.024 24.7873 15.0108 24.1117 15.0042C23.7737 15.0009 23.4964 14.9992 23.3033 14.9984C23.2067 14.998 23.1312 14.9978 23.0797 14.9977L23.0208 14.9976L23.0055 14.9976H23.0015H23.0005H23.0002C23.0001 14.9976 23 14.9976 23 15.9976ZM23 15.9976L23 16.9976H23.0002H23.001L23.0045 16.9976L23.0188 16.9976L23.0757 16.9977L23.2947 16.9984C23.4846 16.9992 23.7583 17.0008 24.0921 17.0041C24.7603 17.0106 25.6679 17.0236 26.6279 17.0497C27.5894 17.0758 28.596 17.1147 29.4642 17.1725C30.3433 17.2311 31.0059 17.3049 31.3456 17.3849C31.6514 17.4735 31.8658 17.5903 32.1209 17.8532C32.3726 18.1127 32.4832 18.3282 32.5622 18.6301C32.8642 20.3168 33.0108 22.0277 33 23.7413H33L33 23.7512C33.0061 25.4389 32.8595 27.1238 32.5622 28.7851C32.4832 29.0869 32.3725 29.3025 32.1209 29.5619C31.8629 29.8279 31.6464 29.9443 31.335 30.0333C31.0063 30.1199 30.3463 30.2013 29.4579 30.2661C28.5914 30.3293 27.5862 30.3719 26.6253 30.4005C25.666 30.429 24.759 30.4433 24.0912 30.4504C23.7575 30.454 23.4841 30.4558 23.2943 30.4567C23.1994 30.4571 23.1255 30.4573 23.0755 30.4574L23.0187 30.4575L23.0045 30.4576L23.001 30.4576H23.0002H23H22.9998H22.999L22.9956 30.4576L22.9813 30.4575L22.9245 30.4574C22.8745 30.4573 22.8006 30.4571 22.7057 30.4567C22.516 30.4558 22.2425 30.454 21.9088 30.4504C21.2411 30.4433 20.334 30.429 19.3747 30.4005C18.4139 30.3719 17.4086 30.3293 16.5421 30.2661C15.6501 30.2011 14.9883 30.1192 14.661 30.0322C14.3536 29.9478 14.1404 29.8375 13.8816 29.5813C13.6346 29.3368 13.5209 29.1326 13.4348 28.8481C13.1348 27.1669 12.9893 25.4617 13 23.7538H13.0001L13 23.7426C12.9916 22.0419 13.1382 20.3441 13.4379 18.67C13.5169 18.3682 13.6275 18.1527 13.8792 17.8932C14.1372 17.6272 14.3536 17.5108 14.6651 17.4218C14.9938 17.3352 15.6538 17.2538 16.5421 17.189C17.4086 17.1258 18.4139 17.0832 19.3747 17.0546C20.334 17.0261 21.2411 17.0118 21.9088 17.0047C22.2425 17.0011 22.516 16.9993 22.7057 16.9984C22.8006 16.998 22.8745 16.9978 22.9245 16.9977L22.9813 16.9976L22.9956 16.9976L22.999 16.9976L22.9998 16.9976H23L23 15.9976ZM21.2444 19.6083C20.9348 19.4323 20.555 19.4341 20.2472 19.6132C19.9394 19.7922 19.75 20.1215 19.75 20.4776V27.0176C19.75 27.3737 19.9394 27.7029 20.2472 27.882C20.555 28.061 20.9348 28.0629 21.2444 27.8868L26.9944 24.6168C27.307 24.4391 27.5 24.1072 27.5 23.7476C27.5 23.388 27.307 23.0561 26.9944 22.8783L21.2444 19.6083ZM24.4772 23.7476L21.75 25.2985V22.1967L24.4772 23.7476Z" fill="#00BDD6"/>
</svg>
