<svg width="46" height="47" viewBox="0 0 46 47" fill="none" xmlns="http://www.w3.org/2000/svg">
<path fill-rule="evenodd" clip-rule="evenodd" d="M18 14.9976C15.7909 14.9976 14 16.7884 14 18.9976V28.9976C14 31.2067 15.7909 32.9976 18 32.9976H28C30.2091 32.9976 32 31.2067 32 28.9976V18.9976C32 16.7884 30.2091 14.9976 28 14.9976H18ZM12 18.9976C12 15.6839 14.6863 12.9976 18 12.9976H28C31.3137 12.9976 34 15.6839 34 18.9976V28.9976C34 32.3113 31.3137 34.9976 28 34.9976H18C14.6863 34.9976 12 32.3113 12 28.9976V18.9976ZM23.4833 20.9867C22.8591 20.8942 22.2217 21.0008 21.6616 21.2914C21.1015 21.582 20.6473 22.0419 20.3636 22.6055C20.0799 23.1692 19.9811 23.8079 20.0814 24.4309C20.1816 25.0539 20.4758 25.6294 20.9219 26.0756C21.3681 26.5218 21.9437 26.8159 22.5667 26.9162C23.1897 27.0164 23.8284 26.9177 24.392 26.634C24.9557 26.3503 25.4155 25.8961 25.7061 25.336C25.9968 24.7759 26.1034 24.1384 26.0108 23.5142C25.9164 22.8776 25.6197 22.2881 25.1646 21.833C24.7095 21.3778 24.12 21.0812 23.4833 20.9867ZM20.7404 19.5162C21.6739 19.0318 22.7364 18.8541 23.7767 19.0084C24.8378 19.1657 25.8202 19.6602 26.5788 20.4188C27.3374 21.1773 27.8318 22.1597 27.9892 23.2209C28.1434 24.2612 27.9658 25.3236 27.4814 26.2571C26.997 27.1906 26.2306 27.9476 25.2912 28.4205C24.3518 28.8933 23.2872 29.0579 22.2489 28.8908C21.2106 28.7237 20.2514 28.2335 19.5077 27.4898C18.7641 26.7462 18.2738 25.787 18.1068 24.7486C17.9397 23.7103 18.1043 22.6457 18.5771 21.7063C19.0499 20.7669 19.8069 20.0006 20.7404 19.5162ZM28.5 17.4976C27.9477 17.4976 27.5 17.9453 27.5 18.4976C27.5 19.0498 27.9477 19.4976 28.5 19.4976H28.51C29.0623 19.4976 29.51 19.0498 29.51 18.4976C29.51 17.9453 29.0623 17.4976 28.51 17.4976H28.5Z" fill="#00BDD6"/>
</svg>
