<svg width="46" height="47" viewBox="0 0 46 47" fill="none" xmlns="http://www.w3.org/2000/svg">
<path fill-rule="evenodd" clip-rule="evenodd" d="M23 12.9976C16.9208 12.9976 12.0025 17.9846 12 23.9972L12 23.9976C12 25.8195 12.6011 27.5958 13.4205 29.1157L12.0422 33.7102C11.9365 34.0626 12.0328 34.4445 12.2929 34.7047C12.5531 34.9648 12.935 35.0611 13.2874 34.9554L17.8933 33.5736C19.3093 34.3128 20.8902 34.9522 22.9784 34.9973C29.0887 35.1294 34 30.0526 34 23.9976C34 17.9224 29.0752 12.9976 23 12.9976ZM23 14.9976C18.0337 14.9976 14.0022 19.0808 14 23.9976V23.998C14.0001 25.5136 14.5507 27.0896 15.3654 28.4964C15.5037 28.7352 15.5371 29.0206 15.4579 29.2849L14.4915 32.5061L17.7127 31.5397C17.9676 31.4633 18.2424 31.4915 18.4764 31.6183C19.8785 32.3779 21.2171 32.9588 23.0216 32.9978C27.9545 33.1044 32 28.9882 32 23.9976C32 19.027 27.9706 14.9976 23 14.9976ZM22.5525 27.3702C23.6332 28.0628 26.3038 29.7527 27.5608 28.613C28.1016 28.1227 28.1578 26.3723 27.6468 25.7763C27.2381 25.2997 25.759 24.9197 25.0951 25.0597C24.728 25.137 24.4474 25.4407 24.1889 25.7205C24.1186 25.7965 24.05 25.8708 23.9817 25.9383C22.7478 25.2449 21.7262 24.2353 21.0246 23.016C21.0929 22.9485 21.1681 22.8807 21.245 22.8113C21.528 22.556 21.8353 22.2788 21.9137 21.9157C22.0549 21.2613 21.6706 19.8039 21.1941 19.399C20.5678 18.8667 18.9335 18.834 18.3361 19.4808C17.2907 20.6125 18.9604 23.4792 19.5954 24.4479C20.3521 25.6247 21.3617 26.6224 22.5525 27.3702Z" fill="#00BDD6"/>
</svg>
