<svg width="46" height="47" viewBox="0 0 46 47" fill="none" xmlns="http://www.w3.org/2000/svg">
<path d="M22.398 11.9995C20.473 12.0255 16.331 12.3415 14.014 14.4645C12.294 16.1745 11.693 18.6955 11.623 21.8175C11.563 24.9275 11.493 30.7675 17.123 32.3585V34.7785C17.123 34.7785 17.085 35.7485 17.725 35.9485C18.515 36.1985 18.965 35.4495 19.715 34.6495L21.115 33.0695C24.965 33.3895 27.915 32.6505 28.255 32.5405C29.035 32.2905 33.436 31.7295 34.156 25.8885C34.896 19.8575 33.796 16.0575 31.816 14.3375L31.806 14.3355C31.206 13.7855 28.806 12.0355 23.436 12.0155C23.436 12.0155 23.04 11.9905 22.398 11.9995ZM22.465 13.6965C23.01 13.6935 23.345 13.7165 23.345 13.7165C27.885 13.7265 30.056 15.0965 30.566 15.5565C32.236 16.9855 33.094 20.4125 32.466 25.4485C31.866 30.3285 28.296 30.6385 27.636 30.8485C27.356 30.9385 24.756 31.5785 21.484 31.3685C21.484 31.3685 19.045 34.3095 18.285 35.0695C18.165 35.1995 18.025 35.2395 17.935 35.2195C17.805 35.1895 17.765 35.0295 17.775 34.8095L17.795 30.7905C13.024 29.4705 13.304 24.4885 13.354 21.8885C13.414 19.2885 13.904 17.1565 15.354 15.7165C17.311 13.9465 20.829 13.7065 22.464 13.6965H22.465ZM22.825 16.2965C22.7856 16.2964 22.7466 16.304 22.7102 16.319C22.6739 16.334 22.6408 16.356 22.6129 16.3837C22.585 16.4115 22.5629 16.4445 22.5478 16.4809C22.5327 16.5172 22.525 16.5562 22.525 16.5955C22.525 16.6751 22.5566 16.7514 22.6128 16.8076C22.6691 16.8639 22.7454 16.8955 22.825 16.8955C23.5684 16.8813 24.3073 17.0145 24.999 17.2874C25.6907 17.5603 26.3215 17.9675 26.855 18.4855C27.945 19.5455 28.476 20.9655 28.496 22.8255C28.496 22.8649 28.5037 22.9039 28.5188 22.9403C28.5339 22.9767 28.556 23.0098 28.5838 23.0376C28.6117 23.0655 28.6448 23.0876 28.6812 23.1027C28.7176 23.1178 28.7566 23.1255 28.796 23.1255V23.1165C28.8755 23.1165 28.9518 23.0849 29.0081 23.0286C29.0644 22.9724 29.096 22.8961 29.096 22.8165C29.1331 21.9418 28.9917 21.0687 28.6805 20.2503C28.3694 19.432 27.8949 18.6856 27.286 18.0565C26.096 16.8965 24.595 16.2965 22.825 16.2965ZM18.871 16.9865C18.6583 16.9562 18.4416 16.9985 18.256 17.1065H18.244C17.834 17.3465 17.456 17.6465 17.096 18.0465C16.826 18.3665 16.675 18.6855 16.635 18.9955C16.6114 19.1773 16.6285 19.3621 16.685 19.5365L16.705 19.5465C17.0132 20.4527 17.4154 21.3241 17.905 22.1465C18.5396 23.2983 19.3193 24.364 20.225 25.3175L20.255 25.3575L20.295 25.3875L20.325 25.4175L20.355 25.4475C21.3122 26.3555 22.3807 27.1384 23.535 27.7775C24.855 28.4975 25.657 28.8375 26.137 28.9775V28.9875C26.277 29.0275 26.405 29.0475 26.535 29.0475C26.9447 29.0176 27.3326 28.8515 27.637 28.5755C28.027 28.2255 28.337 27.8375 28.567 27.4275V27.4175C28.797 26.9875 28.717 26.5765 28.387 26.2965C27.7219 25.7147 27.0019 25.199 26.237 24.7565C25.727 24.4765 25.207 24.6465 24.997 24.9265L24.547 25.4955C24.317 25.7755 23.897 25.7355 23.897 25.7355L23.885 25.7455C20.765 24.9455 19.935 21.7865 19.935 21.7865C19.935 21.7865 19.895 21.3565 20.185 21.1365L20.745 20.6865C21.015 20.4665 21.205 19.9465 20.915 19.4365C20.4731 18.6712 19.9573 17.9511 19.375 17.2865C19.2483 17.1294 19.0695 17.023 18.871 16.9865ZM23.344 17.8765C23.2644 17.8768 23.1882 17.9086 23.1321 17.9651C23.0761 18.0215 23.0447 18.0979 23.045 18.1775C23.0452 18.2571 23.0771 18.3333 23.1335 18.3894C23.19 18.4454 23.2664 18.4768 23.346 18.4765C24.3467 18.4939 25.2997 18.9075 25.996 19.6265C26.3101 19.973 26.5516 20.379 26.7062 20.8204C26.8607 21.2618 26.9253 21.7297 26.896 22.1965C26.8962 22.2759 26.928 22.352 26.9842 22.408C27.0404 22.464 27.1166 22.4955 27.196 22.4955L27.206 22.5075C27.2455 22.5075 27.2845 22.4997 27.321 22.4846C27.3575 22.4694 27.3906 22.4473 27.4185 22.4193C27.4463 22.3913 27.4684 22.3581 27.4834 22.3216C27.4984 22.2851 27.5061 22.246 27.506 22.2065C27.536 21.0165 27.166 20.0165 26.436 19.2165C25.706 18.4165 24.686 17.9665 23.386 17.8765C23.372 17.8755 23.358 17.8755 23.344 17.8765ZM23.834 19.4955C23.7939 19.4943 23.7539 19.5011 23.7164 19.5153C23.6789 19.5296 23.6445 19.5511 23.6153 19.5786C23.5861 19.6062 23.5626 19.6392 23.5462 19.6758C23.5297 19.7124 23.5207 19.7519 23.5195 19.792C23.5183 19.8321 23.525 19.8721 23.5393 19.9096C23.5535 19.9471 23.5751 19.9815 23.6026 20.0107C23.6301 20.0399 23.6631 20.0634 23.6997 20.0798C23.7364 20.0963 23.7759 20.1053 23.816 20.1065C24.806 20.1565 25.286 20.6565 25.346 21.6865C25.3486 21.7643 25.3813 21.8381 25.4373 21.8922C25.4933 21.9463 25.5681 21.9766 25.646 21.9765H25.656C25.6963 21.9753 25.7359 21.9659 25.7725 21.949C25.8091 21.9321 25.8419 21.908 25.8689 21.8781C25.896 21.8482 25.9168 21.8132 25.93 21.7752C25.9433 21.7371 25.9487 21.6967 25.946 21.6565C25.876 20.3165 25.146 19.5655 23.846 19.4955C23.842 19.4954 23.838 19.4954 23.834 19.4955Z" fill="#00BDD6"/>
</svg>
