<svg width="25" height="25" viewBox="0 0 25 25" fill="none" xmlns="http://www.w3.org/2000/svg">
<path fill-rule="evenodd" clip-rule="evenodd" d="M5.50292 13.9967C7.53273 13.9907 9.22321 15.8679 9.00617 17.8857C8.79491 19.7139 7.34407 21.0027 5.50326 20.9967C3.5688 20.9904 2.00802 19.4306 2.00001 17.4966C2.00725 15.5627 3.56865 14.0023 5.50292 13.9967ZM2.9806 10.2085L2.60692 12.8224C3.44612 12.3015 4.43603 11.9998 5.49709 11.9967C8.34333 11.9884 10.7205 14.259 10.9981 16.9967L13.0074 16.9967C13.296 14.2668 15.6592 12.0153 18.4989 12.0123C19.5866 12.0111 20.5936 12.306 21.4423 12.8283C21.3419 12.1847 21.2452 11.5824 21.1692 11.1137C21.1224 10.8257 21.0835 10.5885 21.0563 10.4233L21.0247 10.2323L21.0164 10.1824L21.0143 10.1697L21.0138 10.1666L21.0137 10.1658L21.0136 10.1656L22 10.001L21.0136 10.1656L21.0136 10.1654C20.7673 8.68765 20.5321 7.77688 20.2642 7.13314C20.0102 6.52268 19.7169 6.12804 19.2929 5.70401C18.9352 5.34629 18.4149 5.15257 17.903 5.06159C17.6571 5.01787 17.438 5.00241 17.2823 4.99802C17.2051 4.99584 17.1454 4.99643 17.1078 4.99737C17.0891 4.99784 17.0761 4.9984 17.0693 4.99872L17.0667 4.99882L17.0652 4.99892L17.0644 4.99898C16.5153 5.03444 16.0403 4.61937 16.0024 4.06989C15.9644 3.51892 16.3802 3.04144 16.9312 3.00342L17 4.00105C16.9312 3.00342 16.9315 3.0034 16.9318 3.00338L16.9325 3.00333L16.934 3.00323L16.9376 3.003L16.9468 3.00243L16.9734 3.00102C16.9946 3 17.023 2.99887 17.0577 2.998C17.1271 2.99626 17.2226 2.99554 17.3387 2.99881C17.5697 3.00533 17.8897 3.02786 18.2531 3.09245C18.9599 3.21809 19.9396 3.52229 20.7071 4.28979C21.2831 4.86576 21.7398 5.47319 22.1108 6.36481C22.4679 7.22314 22.7327 8.31444 22.9864 9.83663L22.9864 9.83665L22.9864 9.83686L22.9866 9.83773L22.9871 9.8411L22.9893 9.85419L22.9978 9.905L23.0297 10.098C23.0571 10.2646 23.0963 10.5035 23.1433 10.7933C23.2374 11.3727 23.3628 12.1562 23.4884 12.9717C23.6138 13.7862 23.7399 14.637 23.835 15.3495C23.9209 15.9932 23.9919 16.5969 23.9994 16.9403C24.3043 20.1239 21.7049 22.9945 18.5007 22.9967C15.9481 22.9984 13.8395 21.3673 13.1799 18.9967L10.8218 18.9967C10.1653 21.3696 8.05048 23.005 5.49675 22.9967C2.46174 22.9868 0.00989972 20.5349 1.22909e-05 17.4999L8.47062e-07 17.4967C8.49885e-07 17.4643 0.000401396 17.4302 0.00117197 17.3945C0.00205698 17.3514 0.003436 17.3084 0.00530139 17.2655C0.0068796 17.2273 0.00879933 17.1877 0.0110454 17.1467C-0.00321348 17.0524 -0.00411934 16.9545 0.0100698 16.8553L0.0632382 16.4833C0.15658 15.5127 0.338816 14.2 0.510816 13.0397C0.636552 12.1915 0.762187 11.3912 0.856332 10.8032C0.903425 10.5091 0.942684 10.2678 0.970197 10.0999L1.00218 9.90556L1.01066 9.85442L1.01285 9.8412L1.01342 9.83778L1.01357 9.83689L1.01361 9.83664C1.01361 9.83664 1.01361 9.83664 1.01371 9.83665C1.01372 9.83662 1.01372 9.83658 1.01373 9.83655L1.01363 9.83653C1.01441 9.83189 1.01521 9.82725 1.01605 9.82262C1.26901 8.30806 1.53324 7.221 1.88924 6.36542C2.05371 5.97014 2.23503 5.63072 2.43611 5.32513C2.68912 4.94036 2.9731 4.60951 3.29298 4.28971C4.06717 3.5157 5.04571 3.21053 5.75531 3.08624C6.11905 3.02253 6.43874 3.00161 6.66957 2.9965C6.78564 2.99393 6.88106 2.99533 6.95049 2.99759C6.98525 2.99872 7.01365 3.00008 7.03502 3.00128L7.06179 3.00293L7.0711 3.00358L7.07472 3.00384L7.07626 3.00396L7.07697 3.00402C7.077 3.00402 7.07703 3.00402 7.07701 3.00462C7.0772 3.00464 7.07739 3.00465 7.07759 3.00467L7.07763 3.00407C7.60644 3.04524 8.00703 3.49062 7.99996 4.01358C7.99972 4.03246 7.99895 4.05143 7.99763 4.0705C7.95972 4.61997 7.48473 5.03504 6.93566 4.99958L6.93483 4.99953L6.93481 4.99953L6.93069 4.99933C6.92396 4.999 6.91092 4.99845 6.8922 4.99798C6.85465 4.99704 6.79487 4.99645 6.71768 4.99863C6.56198 5.00302 6.34292 5.01847 6.09697 5.06219C5.58511 5.15317 5.06483 5.3469 4.70711 5.70461C4.47278 5.93894 4.27838 6.16429 4.10846 6.42206C3.97291 6.6279 3.85277 6.85455 3.74059 7.12254C3.47428 7.75873 3.24097 8.65662 3.00329 10.1049C2.99757 10.1398 2.98999 10.1744 2.9806 10.2085ZM18.5011 14.0123C16.473 14.0144 14.7945 15.8707 14.9941 17.888C15.2123 19.7151 16.6582 20.9979 18.4993 20.9967C20.5304 20.9953 22.2132 19.1284 22.0063 17.1087C21.7821 15.2853 20.3394 14.0103 18.5011 14.0123Z" fill="#00BDD6"/>
</svg>
