<svg width="36" height="36" viewBox="0 0 36 36" fill="none" xmlns="http://www.w3.org/2000/svg">
<path fill-rule="evenodd" clip-rule="evenodd" d="M18.0005 10C18.0005 9 18.0004 9 18.0004 9H18H17.999L17.995 9L17.9796 9.00001L17.9206 9.00011C17.869 9.00023 17.7934 9.00046 17.6968 9.00091C17.5036 9.00182 17.2261 9.00363 16.8879 9.00724C16.2119 9.01448 15.2915 9.02895 14.3158 9.05794C13.3417 9.08689 12.3044 9.13054 11.3971 9.19671C10.5178 9.26085 9.67578 9.35123 9.14213 9.49395L9.12826 9.49777C8.50211 9.67492 7.96852 9.96245 7.44405 10.5031C6.91958 11.0438 6.64842 11.5859 6.49042 12.2172C6.48501 12.2388 6.48032 12.2606 6.47637 12.2825C6.15106 14.0864 5.99177 15.9164 6.00048 17.7493C5.98923 19.5961 6.14854 21.44 6.47638 23.2575C6.48224 23.29 6.4897 23.3222 6.49874 23.3539C6.67291 23.9655 6.95161 24.487 7.47521 25.0052C7.9988 25.5234 8.52323 25.7967 9.13658 25.9645L9.13657 25.9646L9.14213 25.966C9.67578 26.1088 10.5178 26.1992 11.3971 26.2633C12.3044 26.3295 13.3417 26.3731 14.3158 26.4021C15.2915 26.4311 16.2119 26.4455 16.8879 26.4528C17.2261 26.4564 17.5036 26.4582 17.6968 26.4591C17.7934 26.4595 17.869 26.4598 17.9206 26.4599L17.9796 26.46L17.995 26.46L17.999 26.46H18H18.0004C18.0004 26.46 18.0005 26.46 18.0005 25.46C18.0005 26.46 18.0006 26.46 18.0006 26.46H18.0009H18.002L18.006 26.46L18.0214 26.46L18.0804 26.4599C18.132 26.4598 18.2076 26.4595 18.3042 26.4591C18.4974 26.4582 18.7749 26.4564 19.1131 26.4528C19.7891 26.4455 20.7095 26.4311 21.6852 26.4021C22.6593 26.3731 23.6966 26.3295 24.6039 26.2633C25.4832 26.1992 26.3252 26.1088 26.8589 25.966L26.8727 25.9622C27.4989 25.7851 28.0325 25.4975 28.5569 24.9569C29.0814 24.4162 29.3526 23.8741 29.5106 23.2428C29.516 23.2212 29.5207 23.1994 29.5246 23.1774C29.8475 21.3869 30.0067 19.5707 30.0005 17.7513C30.0118 15.9043 29.8525 14.0602 29.5246 12.2425C29.5207 12.2206 29.516 12.1988 29.5106 12.1772C29.3526 11.5459 29.0814 11.0038 28.5569 10.4631C28.0325 9.92245 27.4989 9.63492 26.8727 9.45777C26.8611 9.45448 26.8494 9.45141 26.8377 9.44854C26.312 9.32017 25.4772 9.23798 24.5976 9.1794C23.6921 9.11909 22.6562 9.07928 21.6826 9.05287C20.7076 9.02641 19.7878 9.01321 19.1121 9.00661C18.7741 9.00331 18.4968 9.00166 18.3038 9.00083C18.2072 9.00042 18.1317 9.00021 18.0802 9.0001L18.0213 9.00001L18.006 9H18.002H18.0009H18.0006C18.0006 9 18.0005 9 18.0005 10ZM18.0005 10L18.0005 11H18.0007H18.0015L18.005 11L18.0193 11L18.0762 11.0001L18.2952 11.0008C18.4851 11.0016 18.7587 11.0033 19.0926 11.0065C19.7607 11.013 20.6684 11.0261 21.6284 11.0521C22.5898 11.0782 23.5964 11.1172 24.4647 11.175C25.3437 11.2335 26.0064 11.3073 26.3461 11.3873C26.6519 11.4759 26.8663 11.5927 27.1214 11.8557C27.373 12.1151 27.4837 12.3306 27.5627 12.6325C27.8647 14.3192 28.0113 16.0301 28.0005 17.7437H28.0005L28.0005 17.7536C28.0066 19.4414 27.86 21.1262 27.5627 22.7875C27.4837 23.0894 27.373 23.3049 27.1214 23.5643C26.8633 23.8304 26.6469 23.9468 26.3354 24.0357C26.0068 24.1223 25.3467 24.2038 24.4584 24.2686C23.5919 24.3318 22.5867 24.3744 21.6258 24.4029C20.6665 24.4314 19.7594 24.4457 19.0917 24.4529C18.758 24.4564 18.4845 24.4582 18.2948 24.4591C18.1999 24.4596 18.126 24.4598 18.076 24.4599L18.0192 24.46L18.005 24.46L18.0015 24.46H18.0007H18.0005H18.0003H17.9995L17.996 24.46L17.9818 24.46L17.925 24.4599C17.875 24.4598 17.8011 24.4596 17.7062 24.4591C17.5164 24.4582 17.243 24.4564 16.9093 24.4529C16.2416 24.4457 15.3345 24.4314 14.3752 24.4029C13.4143 24.3744 12.4091 24.3318 11.5426 24.2686C10.6506 24.2035 9.9888 24.1217 9.66152 24.0347C9.35407 23.9502 9.14092 23.8399 8.88207 23.5837C8.6351 23.3393 8.52133 23.1351 8.4353 22.8506C8.13531 21.1693 7.98975 19.4641 8.00048 17.7563H8.00054L8.00048 17.7451C7.99208 16.0444 8.13864 14.3465 8.43833 12.6725C8.51733 12.3706 8.62797 12.1551 8.87963 11.8957C9.13767 11.6296 9.35407 11.5132 9.66557 11.4243C9.99424 11.3377 10.6543 11.2562 11.5426 11.1914C12.4091 11.1282 13.4143 11.0856 14.3752 11.0571C15.3345 11.0286 16.2416 11.0143 16.9093 11.0071C17.243 11.0036 17.5164 11.0018 17.7062 11.0009C17.8011 11.0004 17.875 11.0002 17.925 11.0001L17.9818 11L17.996 11L17.9995 11L18.0003 11H18.0005L18.0005 10ZM16.2448 13.6107C15.9353 13.4347 15.5555 13.4366 15.2477 13.6156C14.9399 13.7947 14.7505 14.1239 14.7505 14.48V21.02C14.7505 21.3761 14.9399 21.7053 15.2477 21.8844C15.5555 22.0634 15.9353 22.0653 16.2448 21.8893L21.9948 18.6193C22.3074 18.4415 22.5005 18.1096 22.5005 17.75C22.5005 17.3904 22.3074 17.0585 21.9948 16.8807L16.2448 13.6107ZM19.4776 17.75L16.7505 19.3009V16.1991L19.4776 17.75Z" fill="white"/>
</svg>
