<svg width="36" height="36" viewBox="0 0 36 36" fill="none" xmlns="http://www.w3.org/2000/svg">
<path fill-rule="evenodd" clip-rule="evenodd" d="M13.0005 9C10.7913 9 9.00049 10.7909 9.00049 13V23C9.00049 25.2091 10.7913 27 13.0005 27H23.0005C25.2096 27 27.0005 25.2091 27.0005 23V13C27.0005 10.7909 25.2096 9 23.0005 9H13.0005ZM7.00049 13C7.00049 9.68629 9.68678 7 13.0005 7H23.0005C26.3142 7 29.0005 9.68629 29.0005 13V23C29.0005 26.3137 26.3142 29 23.0005 29H13.0005C9.68678 29 7.00049 26.3137 7.00049 23V13ZM18.4838 14.9892C17.8596 14.8966 17.2221 15.0032 16.662 15.2939C16.1019 15.5845 15.6477 16.0443 15.364 16.608C15.0804 17.1716 14.9816 17.8103 15.0819 18.4333C15.1821 19.0563 15.4762 19.6319 15.9224 20.0781C16.3686 20.5242 16.9441 20.8184 17.5671 20.9186C18.1901 21.0189 18.8289 20.9201 19.3925 20.6364C19.9562 20.3527 20.416 19.8985 20.7066 19.3384C20.9972 18.7783 21.1039 18.1409 21.0113 17.5167C20.9169 16.88 20.6202 16.2905 20.1651 15.8354C19.7099 15.3803 19.1205 15.0836 18.4838 14.9892ZM15.7409 13.5186C16.6744 13.0342 17.7369 12.8566 18.7772 13.0108C19.8383 13.1682 20.8207 13.6626 21.5793 14.4212C22.3378 15.1798 22.8323 16.1622 22.9897 17.2233C23.1439 18.2636 22.9662 19.3261 22.4819 20.2596C21.9975 21.1931 21.2311 21.9501 20.2917 22.4229C19.3523 22.8957 18.2877 23.0603 17.2494 22.8932C16.2111 22.7262 15.2519 22.2359 14.5082 21.4923C13.7646 20.7486 13.2743 19.7894 13.1073 18.7511C12.9402 17.7128 13.1048 16.6482 13.5776 15.7088C14.0504 14.7694 14.8074 14.003 15.7409 13.5186ZM23.5005 11.5C22.9482 11.5 22.5005 11.9477 22.5005 12.5C22.5005 13.0523 22.9482 13.5 23.5005 13.5H23.5105C24.0628 13.5 24.5105 13.0523 24.5105 12.5C24.5105 11.9477 24.0628 11.5 23.5105 11.5H23.5005Z" fill="white"/>
</svg>
