<svg width="36" height="36" viewBox="0 0 36 36" fill="none" xmlns="http://www.w3.org/2000/svg">
<path d="M17.3985 6.00202C15.4735 6.02802 11.3315 6.34402 9.01446 8.46702C7.29446 10.177 6.69346 12.698 6.62346 15.82C6.56346 18.93 6.49346 24.77 12.1235 26.361V28.781C12.1235 28.781 12.0855 29.751 12.7255 29.951C13.5155 30.201 13.9655 29.452 14.7155 28.652L16.1155 27.072C19.9655 27.392 22.9155 26.653 23.2555 26.543C24.0355 26.293 28.4365 25.732 29.1565 19.891C29.8965 13.86 28.7965 10.06 26.8165 8.34002L26.8065 8.33802C26.2065 7.78802 23.8065 6.03802 18.4365 6.01802C18.4365 6.01802 18.0405 5.99302 17.3985 6.00202ZM17.4655 7.69902C18.0105 7.69602 18.3455 7.71902 18.3455 7.71902C22.8855 7.72902 25.0565 9.09902 25.5665 9.55902C27.2365 10.988 28.0945 14.415 27.4665 19.451C26.8665 24.331 23.2965 24.641 22.6365 24.851C22.3565 24.941 19.7565 25.581 16.4845 25.371C16.4845 25.371 14.0455 28.312 13.2855 29.072C13.1655 29.202 13.0255 29.242 12.9355 29.222C12.8055 29.192 12.7655 29.032 12.7755 28.812L12.7955 24.793C8.02446 23.473 8.30446 18.491 8.35446 15.891C8.41446 13.291 8.90446 11.159 10.3545 9.71902C12.3115 7.94902 15.8295 7.70902 17.4645 7.69902H17.4655ZM17.8255 10.299C17.7861 10.2989 17.7471 10.3065 17.7107 10.3215C17.6743 10.3365 17.6413 10.3585 17.6134 10.3862C17.5855 10.414 17.5634 10.447 17.5483 10.4834C17.5332 10.5197 17.5255 10.5587 17.5255 10.598C17.5255 10.6776 17.5571 10.7539 17.6133 10.8101C17.6696 10.8664 17.7459 10.898 17.8255 10.898C18.5689 10.8838 19.3078 11.017 19.9995 11.2899C20.6912 11.5628 21.322 11.97 21.8555 12.488C22.9455 13.548 23.4765 14.968 23.4965 16.828C23.4965 16.8674 23.5042 16.9064 23.5193 16.9428C23.5344 16.9792 23.5565 17.0123 23.5843 17.0401C23.6122 17.068 23.6453 17.0901 23.6817 17.1052C23.7181 17.1203 23.7571 17.128 23.7965 17.128V17.119C23.876 17.119 23.9523 17.0874 24.0086 17.0311C24.0649 16.9749 24.0965 16.8986 24.0965 16.819C24.1336 15.9443 23.9922 15.0712 23.681 14.2529C23.3699 13.4345 22.8954 12.6881 22.2865 12.059C21.0965 10.899 19.5955 10.299 17.8255 10.299ZM13.8715 10.989C13.6588 10.9587 13.4421 11.001 13.2565 11.109H13.2445C12.8345 11.349 12.4565 11.649 12.0965 12.049C11.8265 12.369 11.6755 12.688 11.6355 12.998C11.6119 13.1798 11.629 13.3646 11.6855 13.539L11.7055 13.549C12.0137 14.4552 12.4159 15.3266 12.9055 16.149C13.5401 17.3008 14.3198 18.3665 15.2255 19.32L15.2555 19.36L15.2955 19.39L15.3255 19.42L15.3555 19.45C16.3127 20.358 17.3812 21.1409 18.5355 21.78C19.8555 22.5 20.6575 22.84 21.1375 22.98V22.99C21.2775 23.03 21.4055 23.05 21.5355 23.05C21.9452 23.0201 22.3331 22.854 22.6375 22.578C23.0275 22.228 23.3375 21.84 23.5675 21.43V21.42C23.7975 20.99 23.7175 20.579 23.3875 20.299C22.7224 19.7172 22.0023 19.2015 21.2375 18.759C20.7275 18.479 20.2075 18.649 19.9975 18.929L19.5475 19.498C19.3175 19.778 18.8975 19.738 18.8975 19.738L18.8855 19.748C15.7655 18.948 14.9355 15.789 14.9355 15.789C14.9355 15.789 14.8955 15.359 15.1855 15.139L15.7455 14.689C16.0155 14.469 16.2055 13.949 15.9155 13.439C15.4736 12.6738 14.9578 11.9536 14.3755 11.289C14.2488 11.1319 14.07 11.0255 13.8715 10.989ZM18.3445 11.879C18.2649 11.8793 18.1887 11.9111 18.1326 11.9676C18.0765 12.024 18.0452 12.1005 18.0455 12.18C18.0457 12.2596 18.0776 12.3358 18.134 12.3919C18.1905 12.4479 18.2669 12.4793 18.3465 12.479C19.3472 12.4964 20.3002 12.91 20.9965 13.629C21.3106 13.9755 21.5521 14.3815 21.7066 14.8229C21.8612 15.2643 21.9258 15.7322 21.8965 16.199C21.8967 16.2784 21.9284 16.3545 21.9847 16.4105C22.0409 16.4665 22.1171 16.498 22.1965 16.498L22.2065 16.51C22.2459 16.51 22.285 16.5022 22.3215 16.4871C22.358 16.4719 22.3911 16.4498 22.4189 16.4218C22.4468 16.3938 22.4689 16.3606 22.4839 16.3241C22.4989 16.2876 22.5066 16.2485 22.5065 16.209C22.5365 15.019 22.1665 14.019 21.4365 13.219C20.7065 12.419 19.6865 11.969 18.3865 11.879C18.3725 11.878 18.3584 11.878 18.3445 11.879ZM18.8345 13.498C18.7943 13.4968 18.7544 13.5036 18.7169 13.5178C18.6793 13.5321 18.645 13.5536 18.6158 13.5811C18.5866 13.6087 18.5631 13.6417 18.5467 13.6783C18.5302 13.7149 18.5211 13.7544 18.52 13.7945C18.5188 13.8346 18.5255 13.8746 18.5398 13.9121C18.554 13.9496 18.5755 13.984 18.6031 14.0132C18.6306 14.0424 18.6636 14.0659 18.7002 14.0823C18.7368 14.0988 18.7763 14.1078 18.8165 14.109C19.8065 14.159 20.2865 14.659 20.3465 15.689C20.3491 15.7668 20.3818 15.8406 20.4378 15.8947C20.4938 15.9488 20.5686 15.9791 20.6465 15.979H20.6565C20.6968 15.9778 20.7364 15.9684 20.773 15.9515C20.8096 15.9346 20.8424 15.9105 20.8694 15.8806C20.8965 15.8507 20.9173 15.8157 20.9305 15.7777C20.9437 15.7396 20.9492 15.6992 20.9465 15.659C20.8765 14.319 20.1465 13.568 18.8465 13.498C18.8425 13.4979 18.8385 13.4979 18.8345 13.498Z" fill="white"/>
</svg>
