<svg width="36" height="36" viewBox="0 0 36 36" fill="none" xmlns="http://www.w3.org/2000/svg">
<path fill-rule="evenodd" clip-rule="evenodd" d="M18.0005 7C11.9212 7 7.00294 11.987 7.0005 17.9996L7.0005 18C7.0005 19.8219 7.60154 21.5983 8.42102 23.1182L7.04267 27.7127C6.93696 28.065 7.03326 28.447 7.29339 28.7071C7.55352 28.9672 7.93548 29.0635 8.28785 28.9578L12.8938 27.576C14.3098 28.3152 15.8907 28.9546 17.9789 28.9998C24.0892 29.1318 29.0005 24.055 29.0005 18C29.0005 11.9249 24.0756 7 18.0005 7ZM18.0005 9C13.0342 9 9.00272 13.0832 9.0005 18V18.0004C9.0006 19.5161 9.55115 21.092 10.3659 22.4989C10.5042 22.7377 10.5376 23.023 10.4583 23.2873L9.49197 26.5085L12.7132 25.5422C12.968 25.4657 13.2429 25.494 13.4769 25.6207C14.879 26.3804 16.2175 26.9612 18.0221 27.0002C22.9549 27.1068 27.0005 22.9906 27.0005 18C27.0005 13.0294 22.9711 9 18.0005 9ZM17.5529 21.3726C18.6337 22.0652 21.3042 23.7552 22.5613 22.6155C23.1021 22.1251 23.1583 20.3748 22.6472 19.7788C22.2386 19.3021 20.7595 18.9222 20.0956 19.0621C19.7285 19.1395 19.4479 19.4431 19.1894 19.7229C19.1191 19.7989 19.0505 19.8732 18.9822 19.9407C17.7483 19.2474 16.7267 18.2378 16.0251 17.0184C16.0934 16.9509 16.1686 16.8831 16.2455 16.8137C16.5285 16.5584 16.8358 16.2812 16.9142 15.9181C17.0554 15.2637 16.6711 13.8064 16.1945 13.4014C15.5683 12.8692 13.934 12.8365 13.3365 13.4833C12.2912 14.6149 13.9609 17.4817 14.5959 18.4503C15.3525 19.6271 16.3621 20.6248 17.5529 21.3726Z" fill="white"/>
</svg>
