<svg width="248" height="125" viewBox="0 0 248 125" fill="none" xmlns="http://www.w3.org/2000/svg">
<g filter="url(#filter0_d_8023_41200)">
<g opacity="0.9" clip-path="url(#clip0_8023_41200)">
<path d="M92.6813 102.602H95.4601L88.7325 118.577C88.0012 120.336 86.9775 121.655 85.8074 122.534C84.6374 123.414 83.1749 123.707 81.5662 123.56V120.922C82.7362 121.069 83.6137 120.922 84.3449 120.483C85.0762 120.043 85.6612 119.163 86.1 118.138L86.2462 117.698L79.3724 102.602H82.1512L87.7087 114.62L92.6813 102.602ZM93.8513 123.56V121.069C95.1676 121.215 96.1913 120.922 96.9226 119.896C97.6538 118.87 97.9463 117.112 97.9463 114.474V102.602H111.84V123.56H109.061V105.24H100.871V114.474C100.871 116.379 100.725 117.991 100.286 119.164C99.9939 120.483 99.4089 121.362 98.8239 122.095C98.0926 122.681 97.3613 123.121 96.6301 123.414C95.7526 123.56 94.8751 123.707 93.8513 123.56ZM116.228 123.56V102.602H119.007V110.077H123.833C125.734 110.077 127.343 110.663 128.659 111.982C129.975 113.301 130.56 114.913 130.56 116.819C130.56 118.724 129.975 120.336 128.659 121.655C127.343 122.974 125.734 123.56 123.833 123.56H116.228ZM132.754 123.56V102.602H135.533V123.56H132.754ZM119.007 120.922H123.833C125.003 120.922 125.88 120.483 126.758 119.75C127.489 119.017 127.928 117.991 127.928 116.819C127.928 115.646 127.489 114.62 126.758 113.887C126.027 113.155 125.003 112.715 123.833 112.715H119.007V120.922ZM147.964 110.81C149.719 110.81 151.328 111.396 152.645 112.715C153.961 113.887 154.546 115.499 154.546 117.258C154.546 119.017 153.961 120.629 152.645 121.802C151.328 122.974 149.866 123.56 147.964 123.56H140.067V102.602H152.645V105.24H142.846V110.81H147.964ZM147.964 120.922C148.988 120.922 149.866 120.629 150.597 119.896C151.328 119.164 151.621 118.284 151.621 117.258C151.621 116.232 151.328 115.353 150.597 114.62C149.866 113.887 148.988 113.594 147.964 113.594H142.846V121.069H147.964V120.922ZM174.875 120.776C172.827 122.828 170.195 124 167.123 124C164.052 124 161.566 122.974 159.372 120.776C157.325 118.724 156.301 116.086 156.301 113.008C156.301 109.93 157.325 107.439 159.372 105.24C161.42 103.188 164.052 102.016 167.123 102.016C170.195 102.016 172.681 103.042 174.875 105.24C176.922 107.292 178.092 109.93 178.092 113.008C177.946 116.086 176.922 118.577 174.875 120.776ZM161.42 118.87C163.028 120.483 164.93 121.215 167.123 121.215C169.463 121.215 171.365 120.483 172.827 118.87C174.436 117.258 175.167 115.353 175.167 113.008C175.167 110.663 174.436 108.758 172.827 107.146C171.218 105.533 169.317 104.801 167.123 104.801C164.783 104.801 162.882 105.533 161.42 107.146C159.811 108.758 159.08 110.663 159.08 113.008C159.08 115.353 159.811 117.258 161.42 118.87ZM196.52 123.56H193.156L184.089 113.448V123.56H181.31V102.602H184.089V112.129L192.864 102.602H196.228L187.014 112.861L196.52 123.56Z" fill="white"/>
<path fill-rule="evenodd" clip-rule="evenodd" d="M93.296 77.8334C96.3673 77.98 96.6598 78.8594 93.5885 79.1525C92.126 79.299 90.8097 79.4456 89.201 80.7646C87.7385 81.9371 86.5684 84.7218 85.5447 87.653C83.9359 91.6101 82.3271 95.5673 79.6946 95.8604C78.2321 96.007 76.9158 94.981 75.7458 93.662C73.9908 91.6101 72.5283 88.6789 71.797 87.0668C70.1883 83.2562 68.7257 77.98 67.8482 72.8504C66.9707 68.1604 66.532 63.4705 66.6782 59.6599C66.8245 57.4615 66.9707 55.1165 67.702 53.2112C68.4332 51.3059 69.7495 49.5472 72.2358 48.6678C77.0621 46.9091 83.2047 49.4006 87.5922 51.1594C89.4935 51.8922 90.956 52.625 91.9798 52.625C93.7348 52.7715 94.9048 52.4784 96.2211 52.3319C99.7311 51.5991 100.462 52.0387 96.5136 53.5043C95.4898 53.944 94.3198 54.2371 93.4423 54.2371C90.956 54.3837 88.031 53.5043 85.1059 52.625C81.7421 51.5991 78.2321 50.5731 75.7458 51.1594C73.9908 51.4525 72.8208 52.625 71.9433 53.944C70.9195 55.7028 70.3345 57.9012 70.3345 59.953C70.042 64.0567 70.3345 68.1604 70.9195 72.2641C71.6508 76.5144 72.6745 80.6181 74.137 84.5752C74.4296 85.4546 75.3071 87.653 76.4771 89.2652C77.0621 90.1445 77.6471 90.8773 78.2321 91.317C78.8171 91.7567 79.4021 91.9033 79.9871 91.6101C80.1334 91.4636 80.2796 91.317 80.5721 91.1705C82.0346 89.5583 83.0584 87.3599 84.0822 85.308C85.5447 82.2303 87.0072 79.299 89.4935 78.4197C90.371 77.98 91.9798 77.8334 93.296 77.8334ZM88.9085 49.5472C87.2997 48.961 86.4222 47.935 88.9085 48.2282C89.0547 48.2282 89.3472 48.2282 89.4935 48.2282C92.711 48.3747 95.4898 47.7885 97.9761 47.2022C101.194 46.4694 103.972 45.7366 106.751 47.2022C109.091 48.3747 110.7 50.5731 111.724 53.0647C113.186 56.4356 113.625 60.3927 113.625 63.4705C113.625 67.7207 113.04 72.4107 112.016 76.9541C110.992 81.644 109.384 86.1874 107.482 90.1445C107.044 91.0239 106.312 92.1964 105.581 93.0758C104.996 93.662 104.265 94.2482 103.387 94.3948C101.34 94.8345 100.316 93.0758 99.1461 90.7308C98.2686 89.1186 97.2448 87.2133 95.6361 85.7477C93.5885 84.1355 91.9798 83.989 90.8097 83.989C90.0785 83.989 89.6397 83.989 89.3472 83.5493C89.3472 83.4027 89.3472 83.4027 89.3472 83.2562C89.4935 83.1096 89.6397 82.9631 90.0785 82.9631C90.371 82.8165 90.8097 82.6699 91.3948 82.6699C93.4423 82.3768 96.8061 82.8165 99.4386 86.334C100.024 87.0668 100.462 87.7996 100.901 88.3858C101.486 89.4117 102.071 90.1445 102.51 90.4377C103.241 90.8773 104.265 90.1445 105.874 87.0668C107.482 84.2821 108.652 80.325 109.676 76.3678C110.7 71.6779 111.285 66.8414 111.285 63.0308C111.285 60.3927 110.992 56.5821 109.676 53.6509C108.799 51.5991 107.336 49.8403 105.289 49.2541C103.68 48.8144 101.34 49.1075 98.5611 49.4006C96.2211 49.6938 93.7348 49.9869 91.541 49.8403C90.6635 49.9869 89.786 49.6938 88.9085 49.5472Z" fill="white"/>
<path d="M0.103931 94.8344L6.97776 45.0037H8.00153L28.1843 85.8942L48.367 45.0037H49.0983L56.2646 94.8344H51.4383L46.4657 59.0735L28.9155 94.8344H27.5993L9.75655 58.927L4.93024 94.8344H0.103931Z" fill="white"/>
<path d="M126.319 45.0037H136.264C141.822 45.0037 145.478 45.2968 147.526 45.7365C150.451 46.4693 152.937 47.7884 154.692 50.1333C156.593 52.3317 157.471 55.1164 157.471 58.3407C157.471 60.9788 156.886 63.4704 155.57 65.5222C154.253 67.5741 152.498 69.1862 150.158 70.2122C147.818 71.2381 144.454 71.8243 140.359 71.8243L158.202 94.9809H152.06L134.217 71.6778H131.292V94.8344H126.319V45.0037ZM131.292 49.8402V66.8413H139.921C143.284 66.8413 145.771 66.5481 147.233 65.9619C148.842 65.3756 150.012 64.3497 151.036 62.8841C151.913 61.5651 152.352 59.9529 152.352 58.1942C152.352 56.582 151.913 54.9698 151.036 53.6508C150.158 52.3317 148.988 51.3058 147.526 50.7196C146.063 50.1333 143.577 49.8402 140.213 49.8402H131.292Z" fill="white"/>
<path d="M168.147 45.0037H196.666V49.8402H173.12V65.5222H196.374V70.3587H173.12V89.9979H196.374V94.8344H168.147V45.0037Z" fill="white"/>
<path fill-rule="evenodd" clip-rule="evenodd" d="M159.08 30.4942C138.604 25.218 120.323 29.0286 103.796 40.4603C125.734 31.227 144.454 31.8133 160.103 41.1931C182.48 17.7434 212.9 5.72543 248.001 0.00956397C215.386 -0.283558 184.82 6.89792 159.08 30.4942Z" fill="white"/>
</g>
</g>
<defs>
<filter id="filter0_d_8023_41200" x="0.000495911" y="0" width="248" height="125" filterUnits="userSpaceOnUse" color-interpolation-filters="sRGB">
<feFlood flood-opacity="0" result="BackgroundImageFix"/>
<feColorMatrix in="SourceAlpha" type="matrix" values="0 0 0 0 0 0 0 0 0 0 0 0 0 0 0 0 0 0 127 0" result="hardAlpha"/>
<feOffset dy="1"/>
<feColorMatrix type="matrix" values="0 0 0 0 0 0 0 0 0 0 0 0 0 0 0 0 0 0 0.1 0"/>
<feBlend mode="normal" in2="BackgroundImageFix" result="effect1_dropShadow_8023_41200"/>
<feBlend mode="normal" in="SourceGraphic" in2="effect1_dropShadow_8023_41200" result="shape"/>
</filter>
<clipPath id="clip0_8023_41200">
<rect width="248" height="124" fill="white" transform="translate(0.000495911)"/>
</clipPath>
</defs>
</svg>
