<svg width="24" height="25" viewBox="0 0 24 25" fill="none" xmlns="http://www.w3.org/2000/svg">
<path fill-rule="evenodd" clip-rule="evenodd" d="M10.2526 3.33656C10.6195 2.92378 11.2516 2.8866 11.6644 3.25352L20.6644 11.2535C20.8779 11.4433 21 11.7153 21 12.0009C21 12.2866 20.8779 12.5586 20.6644 12.7483L11.6644 20.7483C11.2516 21.1153 10.6195 21.0781 10.2526 20.6653C9.88567 20.2525 9.92285 19.6204 10.3356 19.2535L18.4948 12.0009L10.3356 4.74834C9.92285 4.38142 9.88567 3.74935 10.2526 3.33656ZM6 11.0009C5.44772 11.0009 5 11.4486 5 12.0009C5 12.5532 5.44772 13.0009 6 13.0009C6.55228 13.0009 7 12.5532 7 12.0009C7 11.4486 6.55228 11.0009 6 11.0009ZM3 12.0009C3 10.3441 4.34315 9.00093 6 9.00093C7.30622 9.00093 8.41746 9.83573 8.82929 11.0009H13C13.5523 11.0009 14 11.4486 14 12.0009C14 12.5532 13.5523 13.0009 13 13.0009H8.82929C8.41746 14.1661 7.30622 15.0009 6 15.0009C4.34315 15.0009 3 13.6578 3 12.0009Z" fill="#00BDD6"/>
</svg>
