<svg width="24" height="25" viewBox="0 0 24 25" fill="none" xmlns="http://www.w3.org/2000/svg">
<path fill-rule="evenodd" clip-rule="evenodd" d="M13.7474 3.33656C14.1143 3.74935 14.0771 4.38142 13.6644 4.74834L5.5052 12.0009L13.6644 19.2535C14.0771 19.6204 14.1143 20.2525 13.7474 20.6653C13.3805 21.0781 12.7484 21.1153 12.3356 20.7483L3.33564 12.7483C3.12215 12.5586 3 12.2866 3 12.0009C3 11.7153 3.12215 11.4433 3.33564 11.2535L12.3356 3.25352C12.7484 2.8866 13.3805 2.92378 13.7474 3.33656ZM18 11.0009C17.4477 11.0009 17 11.4486 17 12.0009C17 12.5532 17.4477 13.0009 18 13.0009C18.5523 13.0009 19 12.5532 19 12.0009C19 11.4486 18.5523 11.0009 18 11.0009ZM15.1707 11.0009C15.5825 9.83573 16.6938 9.00093 18 9.00093C19.6569 9.00093 21 10.3441 21 12.0009C21 13.6578 19.6569 15.0009 18 15.0009C16.6938 15.0009 15.5825 14.1661 15.1707 13.0009H11C10.4477 13.0009 10 12.5532 10 12.0009C10 11.4486 10.4477 11.0009 11 11.0009H15.1707Z" fill="#00BDD6"/>
</svg>
