<svg xmlns="http://www.w3.org/2000/svg" viewBox="0 0 56 56" fill="none"><g clip-path="url(#a)" fill="#E0EEF8"><path fill-rule="evenodd" clip-rule="evenodd" d="M11 4h6a6 6 0 0 0 6 6h10a6 6 0 0 0 6-6h6a4 4 0 0 1 4 4v44a4 4 0 0 1-4 4H11a4 4 0 0 1-4-4V8a4 4 0 0 1 4-4zm34 3a1 1 0 0 1 1 1v37a1 1 0 0 1-.293.707l-7 7A1 1 0 0 1 38 53H11a1 1 0 0 1-1-1V8a1 1 0 0 1 1-1h3a1 1 0 1 1 0 2h-2v42h25v-6a1 1 0 0 1 1-1h6V9h-2a1 1 0 1 1 0-2h3zm-2.414 39L39 49.586V46h3.586zM23.232 18.36a1 1 0 0 1 1.536 1.28l-5 6a1 1 0 0 1-1.475.067l-4-4a1 1 0 1 1 1.414-1.414l3.226 3.226 4.299-5.16zM41 19a1 1 0 1 1 0 2H29a1 1 0 1 1 0-2h12zm-4 4a1 1 0 1 1 0 2h-8a1 1 0 1 1 0-2h8zM23.232 33.36a1 1 0 0 1 1.536 1.28l-5 6a1 1 0 0 1-1.475.067l-4-4a1 1 0 1 1 1.414-1.414l3.226 3.226 4.299-5.16zM41 34a1 1 0 1 1 0 2H29a1 1 0 1 1 0-2h12zm-4 4a1 1 0 1 1 0 2h-8a1 1 0 1 1 0-2h8z"/><rect x="19" width="18" height="8" rx="4"/></g><defs><clipPath id="a"><path fill="#fff" transform="translate(0 .001)" d="M0 0h56v56H0z"/></clipPath></defs></svg>